<?xml version="1.0" standalone="no"?>
<!DOCTYPE svg PUBLIC "-//W3C//DTD SVG 20010904//EN"
 "http://www.w3.org/TR/2001/REC-SVG-20010904/DTD/svg10.dtd">
<svg version="1.0" xmlns="http://www.w3.org/2000/svg"
 width="552.000000pt" height="383.000000pt" viewBox="0 0 552.000000 383.000000"
 preserveAspectRatio="xMidYMid meet">

<g transform="translate(0.000000,383.000000) scale(0.100000,-0.100000)"
fill="#000000" stroke="none">
<path d="M3100 3792 c-132 -66 -169 -105 -196 -205 -18 -69 -18 -264 1 -472
20 -215 23 -429 7 -476 -31 -91 -87 -104 -355 -84 -183 13 -362 23 -832 45
-115 5 -448 14 -740 20 -291 6 -558 15 -592 20 -77 13 -135 5 -195 -28 -55
-29 -90 -76 -127 -169 l-26 -68 -1 -540 c-1 -350 -5 -558 -12 -591 -27 -124
36 -209 188 -254 86 -27 335 -68 490 -81 143 -13 449 -7 800 15 445 29 1221
16 1439 -24 71 -13 128 -46 167 -97 37 -48 36 -47 53 -358 11 -207 25 -278 69
-340 85 -121 247 -112 410 24 106 88 236 187 432 327 1001 720 1350 1014 1350
1137 0 37 39 194 56 229 22 43 17 89 -15 141 -37 57 -67 87 -316 307 -110 97
-333 295 -495 440 -712 634 -1088 948 -1224 1021 -184 99 -238 109 -336 61z
m403 -667 c69 -42 168 -115 367 -275 250 -200 545 -429 830 -645 311 -235 426
-328 441 -357 14 -26 5 -48 -20 -48 -35 0 -373 -234 -867 -600 -205 -152 -546
-381 -619 -417 -43 -21 -57 -24 -68 -14 -18 14 -34 104 -41 226 -6 99 -26 188
-57 251 -37 77 -109 91 -399 75 -107 -6 -287 -16 -400 -22 -268 -14 -1925 -20
-2005 -8 -111 18 -163 51 -187 118 -19 52 -13 333 12 611 21 230 30 274 58
285 14 5 23 2 110 -44 136 -73 786 -108 1762 -96 316 4 641 8 722 9 229 2 235
10 222 331 -14 320 -12 606 4 633 19 33 66 29 135 -13z"/>
</g>
</svg>
