<svg xmlns="http://www.w3.org/2000/svg" viewBox="0 0 63.00 62.00" width="63" height="62">
  <path d="M21.02,3.29, L17.60,8.39, C17.60,8.39,14.03,8.34,11.19,9.54, C8.34,10.74,4.88,14.13,2.96,18.07, C1.66,21.60,1.57,27.38,9.01,28.53, C16.46,29.68,20.41,26.18,22.39,21.12, C24.36,16.05,21.80,11.01,21.80,11.01, Z M49.09,28.37, C47.63,28.37,46.00,28.67,44.44,29.39, C40.29,31.31,30.50,31.63,27.60,29.78, C24.71,27.93,20.47,29.21,19.16,30.91, C17.54,35.72,19.48,43.62,29.48,45.59, C39.48,47.56,47.74,43.10,51.79,40.07, C55.84,37.04,54.58,31.88,53.93,30.22, C53.52,29.18,51.54,28.36,49.09,28.37, Z" fill="#ffffff"/>
  <path d="M26.70,60.12, C25.14,55.99,24.40,51.12,24.47,48.32, L24.55,45.66, L23.26,44.78, L21.97,43.89, L20.19,45.86, C17.65,48.65,16.10,51.14,13.37,56.80, C12.05,59.53,11.71,59.63,11.30,60.90, C10.93,62.06,9.32,62.12,9.57,60.06, C10.02,56.34,14.38,47.84,18.19,44.00, L20.14,42.04, L19.39,40.98, C17.65,38.51,16.91,33.98,17.87,31.65, C18.43,30.28,21.64,28.22,23.60,27.97, C24.53,27.85,25.86,28.11,27.69,28.76, C32.17,30.35,34.87,30.35,41.17,28.80, C46.95,27.37,49.83,27.17,52.21,28.01, L53.70,28.54, L54.65,27.10, C55.36,26.01,55.64,25.04,55.77,23.15, C56.00,19.92,55.44,17.60,53.38,13.32, C50.73,7.78,50.95,4.56,54.18,1.70, C55.82,0.24,58.54,-0.39,60.45,0.24, C61.48,0.58,61.99,1.05,62.50,2.10, C63.17,3.48,63.17,3.54,62.49,5.20, C61.93,6.56,61.62,6.89,60.90,6.89, C60.07,6.89,60.02,6.77,60.10,5.25, C60.15,4.35,60.10,3.22,60.00,2.74, C59.82,1.97,59.64,1.90,58.39,2.07, C56.46,2.33,54.97,3.49,54.26,5.29, C53.49,7.24,53.68,8.14,55.91,12.97, C57.97,17.43,58.53,20.25,58.03,23.77, C57.70,26.13,57.16,27.29,55.59,29.00, C54.76,29.90,54.73,30.07,55.14,31.33, C56.20,34.55,54.59,39.64,51.89,41.62, C51.19,42.14,50.49,42.67,50.33,42.80, C49.83,43.22,51.15,50.13,52.17,52.42, C52.70,53.63,53.92,55.59,54.86,56.78, C56.88,59.32,57.07,60.28,55.55,60.28, C54.77,60.28,54.09,59.82,52.81,58.45, C50.02,55.43,48.91,52.52,48.08,45.95, C47.81,43.77,47.10,43.85,46.77,46.10, C46.50,47.94,43.30,56.65,42.10,58.80, C41.26,60.30,40.51,60.86,40.13,60.26, C39.75,59.63,40.67,56.20,42.64,50.98, C43.69,48.18,44.52,45.83,44.47,45.78, C44.43,45.72,43.11,46.02,41.54,46.45, C37.79,47.49,31.51,47.77,28.77,47.03, C27.69,46.73,26.68,46.56,26.55,46.64, C26.12,46.91,26.61,50.48,27.73,55.24, C28.83,59.88,28.95,61.74,28.17,62.00, C27.29,61.54,27.07,61.09,26.70,60.12, Z M41.51,43.74, C46.42,42.26,47.35,41.73,47.48,40.32, C47.60,39.10,48.39,38.70,48.77,39.69, C49.09,40.54,49.84,40.34,51.05,39.05, C53.09,36.89,54.03,33.97,53.54,31.35, C53.36,30.37,53.07,30.01,52.18,29.70, C50.33,29.04,48.56,29.23,43.32,30.64, C39.00,31.81,37.79,31.99,34.19,32.00, C30.31,32.02,29.85,31.94,27.21,30.84, C25.65,30.20,24.00,29.67,23.53,29.67, C22.46,29.67,20.20,30.98,19.73,31.87, C18.98,33.28,19.73,37.61,21.01,39.30, C21.53,39.99,21.57,39.98,22.60,38.99, C23.20,38.40,23.83,38.08,24.08,38.23, C24.49,38.49,24.42,39.95,23.91,41.52, C23.71,42.14,23.96,42.42,25.41,43.15, C28.22,44.56,30.41,44.97,34.55,44.82, C37.29,44.73,39.22,44.43,41.51,43.74, Z M7.77,29.91, C3.61,28.97,1.30,26.28,1.18,22.20, C1.19,20.19,1.20,20.06,0.86,19.97, C-0.51,19.61,-0.15,17.38,1.27,17.76, C1.64,17.86,1.78,18.03,2.78,15.78, C4.14,12.72,7.77,9.77,11.48,8.56, C12.62,8.19,12.81,7.96,12.97,6.74, C13.57,2.21,16.13,1.91,16.13,6.37, C16.13,8.10,17.03,8.36,17.39,6.73, C17.77,4.95,19.61,2.70,20.66,2.70, C21.96,2.70,22.67,4.59,23.00,8.89, C23.14,10.80,23.54,13.34,23.89,14.54, C25.11,18.81,23.93,23.24,20.77,26.21, C17.28,29.51,12.29,30.93,7.77,29.91, Z M16.05,26.50, C20.04,24.60,22.27,21.17,22.27,16.93, C22.27,14.62,21.38,11.77,20.30,10.59, C19.54,9.75,19.12,9.62,17.30,9.62, C14.66,9.62,11.48,10.44,9.44,11.65, C6.54,13.36,3.99,16.91,4.44,18.62, C4.54,19.03,4.37,19.61,4.06,19.93, C2.87,21.13,3.52,24.58,5.23,26.14, C7.32,28.06,12.43,28.23,16.05,26.50, Z M11.61,23.43, C10.82,23.26,9.80,23.02,9.36,22.92, C8.08,22.62,8.41,22.01,9.84,22.01, C11.36,22.01,15.43,23.01,15.93,23.50, C16.36,23.92,13.59,23.88,11.61,23.43, Z M8.18,20.62, C8.18,19.93,10.47,19.46,13.83,19.46, C17.06,19.46,18.33,19.92,16.22,20.32, C13.94,20.76,8.18,20.97,8.18,20.62, Z M7.96,15.30, C7.71,14.63,8.43,13.27,9.04,13.27, C9.86,13.27,9.97,13.70,9.42,14.77, C8.84,15.91,8.27,16.11,7.96,15.30, Z M20.99,7.34, C20.57,4.76,20.28,4.57,19.39,6.31, C18.96,7.17,18.66,7.90,18.72,7.95, C19.08,8.18,20.69,8.85,20.94,8.87, C21.11,8.88,21.13,8.20,20.99,7.34, Z" fill="#030303"/>
</svg>
