<svg xmlns="http://www.w3.org/2000/svg" viewBox="0 0 35.00 47.00" width="35" height="47">
  <path d="M13.65,45.39, C12.88,44.52,11.40,41.80,10.36,39.35, C7.70,33.05,-0.53,2.68,0.03,1.21, C0.96,-1.26,3.25,0.12,5.85,4.74, C7.32,7.34,10.36,15.26,12.61,22.34, C14.85,29.41,17.03,35.41,17.45,35.67, C18.52,36.34,23.12,23.83,25.90,12.68, C28.74,1.30,29.46,-0.20,31.89,0.16, C35.29,0.68,35.75,2.89,34.01,10.54, C30.48,26.18,25.95,39.02,22.22,44.03, C19.72,47.39,15.97,47.98,13.65,45.39, Z" fill="#ffffff"/>
</svg>
