<svg xmlns="http://www.w3.org/2000/svg" viewBox="0 0 55.77 41.02" width="56" height="41">
  <path d="M9.56,2.02, L45.77,2.02, C49.38,2.02,52.28,4.93,52.28,8.54, L52.28,31.38, C52.28,34.99,49.38,37.90,45.77,37.90, L9.56,37.90, C5.95,37.90,3.05,34.99,3.05,31.38, L3.05,8.54, C3.05,4.93,5.95,2.02,9.56,2.02, Z" fill="#ffffff"/>
  <path d="M0.36,37.36, C0.32,33.62,-0.19,30.24,0.08,26.63, C0.19,20.11,-0.44,10.96,0.82,3.12, C1.36,-0.26,6.15,0.12,26.34,0.02, C48.53,-0.09,50.73,0.11,53.42,2.48, C54.95,3.82,55.54,4.91,55.77,6.87, C55.72,18.87,55.74,26.77,54.87,36.68, C54.64,42.54,39.75,40.60,31.58,40.65, C4.94,40.80,-0.05,42.43,0.36,37.36, Z M49.06,34.18, C51.37,25.55,49.79,15.81,51.03,8.10, C50.90,7.98,50.03,8.58,49.10,9.44, C42.90,14.98,40.59,17.95,34.34,21.77, C32.99,22.60,31.25,23.29,30.48,23.30, C21.42,21.28,11.45,10.63,5.41,5.35, C5.68,12.29,5.11,18.67,4.82,24.43, C4.32,34.19,4.67,35.81,8.57,35.56, C20.60,35.74,48.24,37.25,49.06,34.18, Z M34.18,16.60, C37.61,14.42,47.64,4.84,47.21,4.15, C47.04,3.88,40.06,3.66,31.70,3.66, C25.45,4.11,19.05,3.14,12.84,3.55, C11.41,3.65,11.09,3.31,19.59,10.49, C25.76,15.69,29.53,18.40,30.62,18.40, C31.01,18.40,32.61,17.59,34.18,16.60, Z" fill="#030303"/>
</svg>
