<svg xmlns="http://www.w3.org/2000/svg" viewBox="0 0 55.00 51.00" width="55" height="51">
  <path d="M27.97,49.13, C27.97,49.13,10.81,28.40,6.45,24.91, C2.09,21.42,-1.22,13.32,3.66,7.33, C8.55,1.34,16.21,1.27,18.76,2.46, C21.31,3.64,26.86,11.57,26.86,11.57, C26.86,11.57,30.70,4.55,35.66,2.96, C40.61,1.37,48.14,0.80,51.46,7.31, C54.78,13.82,54.40,19.31,49.74,25.56, C45.09,31.82,27.97,49.13,27.97,49.13, Z" fill="#e54a3e"/>
  <path d="M22.45,45.55, C19.81,42.56,14.28,36.54,10.18,32.16, C1.30,22.68,-0.11,20.18,0.01,14.13, C0.10,9.21,1.73,5.97,5.50,3.23, C8.07,1.36,12.29,0.01,15.13,0.15, C19.48,0.36,24.29,3.26,25.99,7.21, L26.91,9.34, L28.51,7.13, C34.35,-0.93,45.83,-2.44,51.61,4.07, C56.46,9.53,56.07,19.08,50.65,27.68, C48.72,30.73,44.45,35.57,35.98,44.30, C30.84,49.61,29.06,51.06,27.75,51.00, C27.48,50.99,25.10,48.53,22.45,45.55, Z M36.95,38.02, C45.92,28.28,48.80,24.27,50.43,19.26, C51.34,16.45,51.46,15.25,51.14,12.50, C50.45,6.49,47.61,3.66,42.03,3.43, C37.04,3.22,32.74,5.45,28.42,12.25, C26.52,15.25,26.03,14.94,25.21,12.75, C24.56,11.00,21.99,6.64,19.79,5.14, C15.17,1.96,8.25,3.72,4.89,8.93, C3.49,11.09,3.53,16.87,4.97,19.90, C5.55,21.14,10.08,26.48,15.02,31.78, C19.96,37.07,24.92,42.77,26.04,44.43, C27.15,46.10,28.26,47.30,28.50,47.10, C28.74,46.90,32.54,42.82,36.95,38.02, Z" fill="none"/>
</svg>
