<svg xmlns="http://www.w3.org/2000/svg" viewBox="0 0 94.00 77.00" width="94" height="77">
  <path d="M46.05,20.80, C49.65,20.21,54.76,16.26,54.34,10.58, C53.91,4.89,48.77,0.78,42.44,2.81, C36.12,4.85,35.58,11.30,36.15,14.38, C36.73,17.45,43.88,20.80,46.05,20.80, Z" fill="#ffe47a"/>
  <path d="M43.36,21.75, C40.41,22.53,38.25,22.08,38.25,22.08, C38.25,22.08,30.91,16.42,30.86,12.25, C30.81,8.08,33.34,3.72,35.97,2.25, C38.59,0.78,40.75,0.20,42.09,0.43, C43.43,0.65,47.96,1.35,47.96,1.35, C47.96,1.35,40.99,1.15,38.52,4.15, C32.66,11.26,35.91,17.84,39.74,19.35, C41.84,20.17,43.36,21.75,43.36,21.75, Z" fill="#f2d14d"/>
  <path d="M51.12,19.30, C48.25,19.89,38.50,22.83,36.24,21.88, L30.98,14.00, L14.68,22.71, C-2.64,22.73,-0.46,33.71,11.57,26.50, L10.12,37.72, C11.65,41.04,11.99,44.03,8.86,46.02, C0.18,57.78,14.02,66.82,23.45,63.84, C24.54,67.15,25.77,76.09,30.70,67.31, L37.79,67.87, C38.30,75.86,43.13,80.51,45.08,67.46, L68.93,58.20, C74.68,68.23,75.41,63.59,74.45,54.02, C84.71,38.21,73.73,16.12,55.24,11.54, Z" fill="#fabaed"/>
  <path d="M42.15,0.00, C40.29,0.02,38.96,0.24,38.08,0.57, C31.91,2.86,29.59,8.07,30.40,13.19, L29.61,13.31, C25.51,13.99,19.77,17.08,16.14,20.69, L14.68,22.07, L13.77,21.60, C9.79,19.66,3.81,23.16,1.32,26.40, C0.37,27.82,-1.78,31.93,2.94,31.60, C3.60,31.60,4.84,30.99,8.51,28.87, C10.03,28.00,10.26,28.00,9.72,28.87, C7.98,31.66,8.02,36.43,9.80,40.16, C10.43,41.46,10.49,41.97,10.09,42.63, C8.27,45.60,5.12,47.30,5.04,51.14, C4.48,60.01,15.51,68.49,21.94,64.39, C23.74,63.44,25.93,58.66,22.76,61.08, C22.18,61.53,21.41,62.02,21.05,62.15, C16.21,63.54,9.05,59.77,7.73,52.79, C7.00,47.47,10.83,47.81,12.97,43.46, C13.39,42.59,13.09,40.73,12.63,40.08, C12.15,39.40,12.77,39.57,13.04,39.88, C14.49,41.59,14.70,37.94,14.79,36.84, C14.92,35.95,13.45,35.35,12.73,36.00, C11.43,36.72,12.41,39.64,11.57,37.39, C9.78,25.60,23.73,17.60,31.17,15.29, C31.48,15.89,32.14,17.24,33.08,17.86, C30.90,18.76,28.63,19.50,26.52,20.64, C25.50,20.90,25.27,21.41,25.87,22.04, C27.48,23.69,29.64,23.87,31.43,25.54, C32.54,26.43,33.00,26.01,34.07,25.64, C45.57,21.67,49.95,21.07,57.93,19.94, C61.02,19.50,61.46,19.45,60.21,18.04, C59.39,17.17,57.00,16.18,55.85,15.08, C55.38,14.78,55.11,13.48,56.55,13.55, C61.15,13.06,75.03,22.08,76.86,34.11, C76.46,34.26,76.20,34.59,76.19,34.96, C76.19,35.29,77.50,36.52,77.86,36.52, C82.29,51.76,58.80,68.32,33.89,65.96, C28.96,65.46,28.45,65.35,26.36,64.40, C24.77,63.70,23.70,64.88,24.74,65.85, C25.20,66.36,27.06,67.27,28.01,67.46, C28.40,67.53,28.71,67.69,28.71,67.80, C28.71,68.13,27.27,69.89,27.12,69.75, C26.42,68.37,25.08,66.31,24.61,69.28, C24.75,73.48,28.71,74.55,31.34,68.31, C32.53,68.26,31.82,68.18,32.53,68.26, C37.42,68.79,36.93,68.58,36.91,70.17, C36.89,73.79,37.92,77.74,42.38,76.88, C45.38,75.51,46.57,70.78,46.30,68.36, C49.06,68.44,62.28,65.85,67.44,60.73, C68.02,60.36,68.56,60.05,68.64,60.05, C69.14,61.32,70.58,65.46,73.51,65.45, C77.69,65.73,77.79,56.95,75.95,54.69, C78.22,50.97,81.32,47.43,81.42,38.68, C81.47,37.13,81.49,37.08,82.19,36.70, C84.08,35.86,84.74,35.39,86.64,33.41, C89.46,33.62,93.30,30.03,93.97,27.10, C94.34,24.41,91.42,22.63,91.62,25.33, C92.10,27.11,89.49,30.87,87.72,30.44, C87.36,29.93,88.02,28.61,87.15,27.24, C85.48,23.66,81.48,24.16,80.15,27.05, C79.50,28.74,80.28,30.51,82.30,31.95, L83.39,32.72, C82.59,33.47,82.05,34.12,81.09,34.54, C80.94,34.47,79.40,30.38,79.10,29.80, C75.18,21.28,69.57,13.37,55.90,10.68, C55.75,6.53,52.30,1.02,47.47,0.41, C45.36,0.11,43.60,-0.01,42.15,0.00, Z M41.57,0.98, C42.17,0.98,42.84,1.10,42.75,1.36, C42.61,1.73,40.71,1.87,40.71,1.17, C40.69,1.05,41.11,0.98,41.57,0.98, Z M37.67,2.66, C37.89,2.66,38.13,2.70,38.38,2.78, C39.46,3.07,38.98,3.15,38.19,3.73, C37.35,4.49,36.70,3.99,36.10,3.76, C35.80,3.64,36.48,2.66,37.67,2.66, Z M45.30,2.95, C48.13,2.93,50.68,4.20,52.41,8.28, C54.05,12.71,51.36,19.52,45.49,19.11, C42.06,19.47,36.92,16.44,36.62,12.02, C36.43,8.23,39.78,3.86,42.88,3.24, C43.70,3.07,44.51,2.96,45.30,2.95, Z M34.48,5.43, C35.05,5.41,36.41,5.72,36.40,5.96, C36.39,6.07,35.88,7.24,35.50,7.77, C35.35,7.76,33.66,7.26,33.45,7.09, C33.30,6.96,33.96,5.58,34.29,5.46, C34.33,5.44,34.40,5.43,34.48,5.43, Z M45.84,5.71, C45.05,5.71,44.90,5.78,44.90,6.12, C44.90,6.50,46.28,7.85,46.66,7.85, C46.75,7.85,47.07,8.10,47.38,8.41, C47.93,8.95,47.96,8.95,48.38,8.58, C48.69,8.30,48.77,8.04,48.67,7.65, C48.51,7.01,47.96,6.35,47.59,6.35, C47.44,6.35,47.20,6.21,47.06,6.03, C46.89,5.84,46.42,5.71,45.84,5.71, Z M43.04,6.59, C42.76,6.59,42.42,6.76,41.97,7.10, C40.40,8.28,39.65,10.78,40.58,11.70, C41.10,12.22,41.51,12.28,42.59,12.02, C43.14,11.88,43.17,11.90,43.00,12.37, C42.48,13.78,43.25,15.71,44.48,16.13, C45.47,16.47,45.61,16.46,46.59,16.08, C47.57,15.69,48.00,15.15,49.07,12.97, C49.84,11.40,50.07,10.42,49.66,10.42, C49.02,10.42,48.34,10.94,47.81,11.84, C46.93,13.32,45.99,14.27,45.40,14.27, C44.69,14.27,44.68,13.70,45.34,11.52, C46.02,9.32,45.49,8.90,43.29,9.87, C42.63,10.16,42.09,10.29,42.09,10.17, C42.09,9.84,42.77,8.49,42.93,8.49, C43.01,8.49,43.25,8.20,43.47,7.84, C43.78,7.32,43.80,7.13,43.60,6.88, C43.43,6.68,43.25,6.58,43.04,6.59, Z M33.99,8.90, C34.49,8.92,34.89,9.17,34.79,9.69, C34.74,10.85,34.99,11.71,33.03,10.95, C32.42,10.83,32.38,10.11,32.70,9.53, C32.93,9.10,33.50,8.88,33.99,8.90, Z M32.76,13.05, C32.77,13.05,32.78,13.05,32.79,13.05, C34.93,13.56,34.95,12.91,35.21,15.34, C35.53,15.92,33.98,15.33,33.51,15.07, C33.13,14.85,32.48,13.09,32.76,13.05, Z M54.70,17.26, C55.33,17.26,55.61,17.60,55.13,17.78, C54.94,17.85,54.77,17.90,54.75,17.89, C54.73,17.88,54.60,17.82,54.45,17.76, C53.99,17.58,54.15,17.26,54.70,17.26, Z M35.49,17.50, C35.74,17.48,36.11,17.60,36.37,17.66, C36.48,17.68,38.18,18.84,37.77,18.97, C37.47,19.18,36.49,18.85,36.31,18.85, C36.12,18.85,35.19,18.27,35.23,17.73, C35.24,17.57,35.34,17.51,35.49,17.50, Z M39.61,20.40, C39.70,20.40,39.78,20.41,39.85,20.43, C40.12,20.49,40.50,20.64,40.44,20.89, C40.37,21.14,39.70,21.13,39.44,21.04, C39.18,20.96,38.95,20.83,39.01,20.62, C39.06,20.46,39.35,20.40,39.61,20.40, Z M11.65,23.08, C12.14,23.09,12.56,23.22,12.86,23.51, C13.06,24.40,12.37,25.09,11.12,25.26, C9.78,25.53,2.24,30.54,3.36,27.96, C4.18,26.70,8.99,23.06,11.65,23.08, Z M84.01,26.89, C85.07,26.88,86.06,27.74,85.23,30.07, C84.82,31.25,83.44,30.68,82.37,28.88, C81.82,27.76,82.95,26.89,84.01,26.89, Z M52.15,30.28, C51.26,30.24,50.47,30.81,51.89,32.03, C55.55,35.18,53.23,40.22,50.84,39.52, C48.05,37.99,48.51,33.81,44.77,32.76, C41.49,32.27,39.96,34.85,43.85,34.83, C44.62,34.77,45.24,35.56,46.59,38.30, C48.73,42.60,51.99,44.64,55.49,38.56, C56.41,36.70,56.51,35.49,55.89,33.85, C55.39,32.52,54.06,31.34,52.99,30.53, C52.75,30.38,52.44,30.30,52.15,30.28, Z M28.85,39.54, C28.37,39.55,28.09,39.88,27.81,40.62, C26.09,44.42,29.32,45.94,30.27,42.32, C30.81,40.35,30.35,39.98,29.65,39.71, C29.33,39.59,29.07,39.53,28.85,39.54, Z M15.37,46.33, C14.94,46.35,14.59,46.48,14.37,46.76, C14.12,47.56,14.82,48.25,16.38,48.71, C19.51,49.66,22.11,51.70,23.23,54.92, C23.99,57.62,25.21,57.76,25.42,54.68, C25.25,52.28,24.24,50.76,21.49,48.82, C20.69,48.26,17.25,46.26,15.37,46.33, Z M11.85,51.79, C11.51,51.77,11.12,51.82,10.78,51.95, C10.35,52.11,10.17,52.39,9.99,53.15, C9.73,54.29,9.91,54.94,10.63,55.44, C11.77,56.24,13.10,53.30,12.58,52.03, C12.47,51.88,12.19,51.80,11.85,51.79, Z M15.67,53.60, C15.52,53.60,15.36,53.63,15.20,53.67, C14.30,53.91,14.17,54.34,14.69,55.35, C15.48,56.90,14.87,57.81,16.97,57.27, C17.79,57.27,17.97,55.71,17.28,54.61, C16.84,53.90,16.32,53.57,15.67,53.60, Z M74.11,56.14, C74.51,57.50,74.29,61.20,73.20,62.49, C72.41,62.88,70.32,60.19,70.72,58.51, C71.47,57.89,72.97,56.88,74.11,56.14, Z M43.66,68.83, L43.54,69.97, C43.36,71.51,42.45,74.90,40.72,74.60, C40.24,74.60,39.44,71.25,39.55,69.72, L39.61,68.83, C40.96,68.83,42.31,68.83,43.66,68.83, Z" fill="#030303"/>
</svg>
