<svg xmlns="http://www.w3.org/2000/svg" viewBox="0 0 85.00 69.00" width="85" height="69">
  <path d="M7.04,37.54, C7.41,32.42,10.72,16.55,12.80,10.93, C14.89,5.32,21.02,0.80,22.13,1.29, C23.23,1.78,21.27,16.43,21.27,16.43, C21.27,16.43,32.43,4.10,35.62,5.56, C38.81,7.03,34.27,15.57,33.29,18.50, C32.31,21.43,23.97,38.88,23.97,38.88, L27.28,40.35, C27.28,40.35,39.54,33.27,43.96,32.42, C48.37,31.56,65.67,30.95,68.98,37.79, C72.29,44.62,74.01,50.48,74.01,50.48, C74.01,50.48,77.20,46.33,78.05,46.09, C78.91,45.84,79.65,47.67,79.65,47.67, C79.65,47.67,83.33,47.92,83.70,49.87, C84.06,51.82,82.10,51.58,82.10,51.58, C82.10,51.58,86.15,53.41,84.68,55.48, C83.21,57.56,81.98,55.73,81.98,55.73, C81.98,55.73,79.89,60.85,77.56,61.59, C75.23,62.32,73.39,61.83,73.64,61.10, C73.88,60.37,69.84,62.56,69.84,62.56, L67.38,66.47, C67.38,66.47,49.60,67.69,47.27,67.57, C44.94,67.45,41.14,66.47,41.14,66.47, C41.14,66.47,23.97,67.32,22.86,67.08, C21.76,66.84,19.18,67.69,14.64,67.81, C10.11,67.93,2.50,65.13,1.77,58.29, C1.03,51.46,3.36,43.16,7.04,37.54, Z" fill="#e9cbaf"/>
  <path d="M16.19,13.49, C16.18,13.49,16.17,13.50,16.15,13.50, C15.24,13.77,14.33,16.31,13.05,20.85, C11.77,25.39,10.86,33.57,12.14,34.02, C12.14,34.02,14.51,27.21,15.24,24.58, C15.96,21.99,17.03,13.50,16.19,13.49, Z M26.46,19.04, C25.55,19.04,22.08,23.94,21.17,26.12, C20.26,28.30,18.07,34.75,19.44,35.75, C20.71,34.75,23.00,31.84,24.18,28.30, C25.37,24.76,27.37,19.04,26.46,19.04, Z M4.71,54.98, C3.71,55.07,3.16,57.07,4.71,57.52, C6.26,57.98,7.64,57.86,7.99,56.71, C8.40,55.37,5.99,54.98,4.71,54.98, Z M20.49,55.21, C19.79,55.19,19.03,55.32,18.34,55.63, C16.97,56.45,16.88,57.81,17.98,58.08, C19.07,58.36,21.35,58.45,22.45,56.99, C23.20,55.99,22.01,55.25,20.49,55.21, Z" fill="#ffa1aa"/>
  <path d="M54.89,32.75, C49.09,32.39,39.95,33.42,36.88,35.39, C33.64,38.74,40.75,42.56,44.35,41.73, C47.96,40.89,48.84,37.56,52.21,37.44, C55.57,37.32,63.82,36.00,60.45,34.21, C59.61,33.76,56.83,32.87,54.89,32.75, Z M13.76,38.78, C10.57,39.27,10.95,47.26,9.94,50.37, C8.91,53.54,10.83,53.93,8.20,56.90, C5.57,59.87,3.59,61.69,5.84,64.65, C4.92,65.47,6.66,67.20,10.76,67.71, C14.86,68.22,16.78,65.53,18.03,65.16, C21.52,64.14,20.80,63.02,18.14,59.14, C16.11,56.20,15.17,53.64,15.99,51.60, C17.23,49.54,17.89,38.14,13.76,38.78, Z" fill="#ffffff"/>
  <path d="M7.09,68.17, C0.76,66.27,0.07,57.67,0.02,56.04, C-0.25,46.86,1.95,42.08,5.49,38.06, C6.55,36.86,6.96,35.93,6.96,34.73, C6.96,31.51,8.41,22.03,9.57,17.67, C11.25,11.33,13.80,6.36,17.05,3.11, C18.52,1.63,20.26,0.29,20.90,0.13, C22.84,-0.35,24.40,0.50,25.15,2.47, C25.84,4.27,25.66,5.61,23.97,11.58, C23.72,12.48,24.18,12.19,26.24,10.17, C28.84,7.63,32.29,5.47,34.63,4.93, C35.48,4.73,36.21,4.91,36.97,5.52, C37.94,6.31,38.07,6.80,38.07,9.83, C38.07,13.17,37.98,13.43,33.80,22.15, C31.45,27.06,28.54,32.58,27.34,34.43, C26.14,36.28,25.22,37.85,25.30,37.92, C25.38,37.99,24.87,38.39,25.89,38.81, C27.66,39.55,27.79,39.54,28.93,38.63, C31.05,36.94,37.07,33.50,39.52,32.59, C43.21,31.21,48.66,30.23,52.67,30.24, C61.87,30.24,68.16,32.77,71.29,37.70, C72.49,39.58,74.32,45.09,74.32,46.79, L74.32,47.89, L76.02,46.74, C77.96,45.44,80.20,45.17,79.77,46.29, C79.57,46.79,79.81,46.99,80.59,46.99, C81.99,46.99,84.37,48.81,83.76,49.42, C83.48,49.70,82.80,49.60,81.88,49.13, C81.09,48.72,80.00,48.39,79.44,48.39, C78.73,48.39,78.51,48.18,78.70,47.68, C78.92,47.13,78.80,47.07,78.17,47.40, C76.92,48.07,75.37,49.88,74.83,51.30, C74.31,52.66,73.34,52.96,72.56,52.00, C72.31,51.68,71.53,49.44,70.84,47.03, C69.33,41.76,68.34,39.75,66.32,37.77, C61.93,33.50,48.35,32.11,39.65,35.04, C35.63,36.39,30.44,39.09,29.18,40.48, C28.10,41.66,26.59,41.65,24.21,40.44, C22.48,39.56,23.64,39.54,22.90,40.21, C22.46,40.61,21.74,40.94,21.31,40.94, C19.92,40.94,20.44,38.96,22.95,34.64, C24.27,32.34,26.40,28.16,27.68,25.35, C28.95,22.53,31.12,18.13,32.49,15.57, C33.86,13.01,35.13,10.02,35.30,8.94, C35.58,7.16,35.52,6.96,34.67,6.96, C33.16,6.96,28.42,10.81,25.61,14.32, C21.53,19.41,16.57,29.79,14.94,36.63, C14.36,39.06,13.51,39.95,13.51,38.13, C13.51,36.21,15.03,29.96,16.38,26.31, C18.07,21.72,21.46,8.56,21.81,5.21, C22.13,2.11,21.46,2.01,18.81,4.75, C13.85,9.87,11.06,17.81,9.02,32.56, C8.32,37.67,8.06,38.57,6.90,39.90, C4.83,42.28,2.97,45.69,3.01,51.62, C3.07,60.93,5.52,64.75,9.65,65.39, C11.60,65.69,11.64,65.66,11.65,64.37, C11.65,63.65,11.78,62.58,11.94,62.00, C12.14,61.25,12.02,60.96,11.50,60.96, C10.67,60.96,9.43,59.13,9.43,58.16, C9.43,57.68,10.38,57.26,11.30,58.58, C12.44,60.21,13.36,59.58,14.04,58.50, C14.53,57.71,15.61,57.77,15.74,57.90, C16.25,58.40,15.31,60.45,14.45,60.72, C13.72,60.95,13.51,61.43,13.51,62.85, C13.51,63.86,13.46,64.84,13.39,65.03, C13.33,65.22,13.74,65.44,14.29,65.52, C16.02,65.77,20.68,65.22,23.09,60.74, C24.44,58.23,26.11,57.42,26.37,57.58, C27.04,57.99,27.46,58.81,26.65,60.36, C25.75,62.08,25.00,62.35,26.41,62.35, C27.07,62.35,27.19,61.68,28.38,60.86, C30.00,59.75,31.09,59.37,32.63,59.35, C34.97,59.32,35.74,60.21,33.80,60.70, C31.66,61.23,26.93,65.16,27.62,65.83, C27.71,65.92,30.88,65.88,34.68,65.73, C40.70,65.51,41.58,65.38,41.58,64.70, C41.58,63.66,43.85,61.56,45.38,61.19, C46.46,60.92,46.64,60.59,46.90,58.35, C47.69,51.69,51.81,46.15,57.10,44.64, C58.72,44.18,60.29,44.44,60.29,45.16, C60.29,45.40,59.70,45.60,58.99,45.60, C56.67,45.60,53.33,48.39,51.49,51.88, C50.44,53.87,50.27,54.75,50.31,57.93, C50.34,59.98,50.44,62.18,50.53,62.82, C50.69,63.93,50.58,63.99,48.24,64.04, C45.93,64.10,44.38,64.75,44.38,65.67, C44.38,66.79,61.23,65.74,65.43,64.36, C67.54,63.67,68.17,63.20,68.94,61.77, C69.89,60.01,71.05,59.43,71.05,60.72, C71.05,61.59,71.49,61.59,72.66,60.71, C73.90,59.77,74.79,59.85,74.79,60.90, C74.79,61.84,72.95,63.28,71.75,63.28, C71.35,63.28,70.84,63.76,70.62,64.33, C69.91,66.19,68.48,67.00,64.22,67.93, C60.96,68.65,58.26,68.85,51.78,68.86, C46.90,68.87,43.39,68.68,43.22,68.42, C43.05,68.13,38.81,68.06,31.77,68.22, C24.02,68.40,21.71,68.32,21.04,67.96, C20.29,67.57,19.83,67.60,19.01,68.13, C17.65,69.02,11.59,69.52,7.09,68.17, Z M75.26,62.07, C75.26,61.67,79.97,57.32,80.71,57.03, C81.06,56.90,81.34,56.41,81.34,55.93, C81.34,55.45,81.48,54.92,81.65,54.75, C82.15,54.26,83.21,55.40,83.21,56.44, C83.21,57.38,79.89,60.91,78.11,61.86, C77.11,62.39,75.26,62.53,75.26,62.07, Z M83.21,53.78, C83.21,53.42,82.54,52.57,81.72,51.88, C80.60,50.94,80.39,50.55,80.86,50.25, C81.59,49.81,82.64,50.11,83.79,51.09, C84.82,51.97,84.90,54.44,83.91,54.44, C83.53,54.44,83.21,54.14,83.21,53.78, Z M8.52,54.12, C7.42,53.32,7.65,51.29,8.86,51.06, C10.36,50.78,11.03,52.52,9.96,53.94, C9.60,54.42,9.15,54.64,8.52,54.12, Z M14.48,53.51, C14.25,52.70,14.42,52.06,14.94,51.55, C15.51,51.10,16.16,51.05,16.61,51.51, C17.62,52.55,16.97,54.71,15.70,54.71, C14.97,54.68,14.66,54.12,14.48,53.51, Z M17.42,37.91, C16.70,36.03,19.91,26.96,22.98,22.23, C24.86,19.32,26.66,17.87,27.83,18.32, C29.47,18.94,27.00,25.64,22.22,33.49, C19.32,38.27,18.02,39.47,17.42,37.91, Z M23.83,27.21, C26.30,22.01,26.99,19.79,26.06,20.10, C24.70,20.55,19.59,31.98,19.59,34.56, C19.60,35.44,21.41,32.28,23.83,27.21, Z M10.35,37.35, C8.74,36.77,10.99,24.33,14.26,15.72, C16.13,10.79,17.70,10.34,17.71,14.73, C17.72,17.09,16.89,20.81,14.33,29.92, C12.45,36.59,11.77,37.85,10.35,37.35, Z M14.46,23.86, C15.52,19.97,16.31,16.09,16.22,15.25, C16.07,13.84,15.97,13.98,15.03,16.88, C13.83,20.56,12.09,28.84,12.15,30.63, C12.19,32.20,12.18,32.24,14.46,23.86, Z" fill="none"/>
</svg>
