<svg xmlns="http://www.w3.org/2000/svg" viewBox="0 0 102.00 81.00" width="102" height="81">
  <path d="M13.85,36.80, C13.26,36.81,12.65,36.85,11.99,36.91, C6.79,37.43,3.55,39.37,2.48,42.42, C1.41,45.46,2.54,60.40,1.87,64.28, C1.32,68.38,8.79,69.81,17.13,68.38, L23.34,63.53, L23.45,63.35, L23.07,63.58, C23.07,63.58,23.13,43.67,21.77,40.66, C20.58,38.02,17.97,36.74,13.85,36.80, Z" fill="#c38b8b"/>
  <path d="M45.51,34.90, C44.06,34.88,42.53,35.05,41.09,35.39, C36.49,36.49,33.28,42.10,32.36,46.08, C31.46,49.92,32.57,57.13,32.65,57.65, L54.44,59.73, C54.33,59.60,53.95,59.14,53.47,58.51, C52.92,57.79,52.78,40.38,52.02,37.72, C51.51,35.89,48.71,34.95,45.51,34.90, Z" fill="#8fad97"/>
  <path d="M74.74,38.47, C73.66,38.49,72.41,38.63,70.94,38.89, C63.10,40.26,63.10,54.09,63.51,57.56, C63.51,57.56,62.51,59.94,64.41,60.61, C68.81,61.93,72.90,62.03,77.36,62.16, C73.21,60.05,84.66,61.55,84.10,57.12, C84.07,55.10,84.24,48.35,82.33,43.99, C80.78,40.44,79.40,38.39,74.74,38.47, Z" fill="#b497b9"/>
  <path d="M14.22,70.68, L34.62,57.20, L77.81,62.62, L52.09,79.94, C52.09,79.94,12.03,73.23,14.22,70.68, Z" fill="#fdfcfb"/>
  <path d="M35.52,18.29, L43.74,14.33, C43.74,14.33,45.50,17.71,47.23,18.49, C48.96,19.26,52.74,20.81,52.74,20.81, C52.74,20.81,51.44,31.17,42.66,30.11, C33.89,29.06,35.52,18.29,35.52,18.29, Z" fill="#f2ddcc"/>
  <path d="M34.90,18.30, L43.93,14.22, C43.93,14.22,45.81,17.11,47.08,18.08, C48.34,19.06,52.99,20.60,52.99,20.60, C52.99,20.60,52.95,17.55,52.60,14.95, C52.26,12.35,51.49,9.64,51.49,9.64, C51.49,9.64,56.83,3.13,48.29,1.33, C41.44,-0.11,42.47,6.61,42.47,6.61, C42.47,6.61,35.67,11.06,34.90,18.30, Z" fill="#e3cc87"/>
  <path d="M61.51,18.25, C61.74,19.27,60.86,30.70,68.15,32.48, C75.45,34.27,78.88,28.63,79.46,27.22, C80.04,25.81,79.61,20.42,77.64,17.65, C75.66,14.87,73.76,13.74,72.51,13.63, C71.26,13.52,62.53,14.41,61.51,18.25, Z" fill="#caa180"/>
  <path d="M16.36,9.60, C11.42,9.52,9.16,13.96,6.55,18.15, C3.56,22.93,4.46,28.18,7.56,30.19, C7.56,30.19,9.91,32.47,17.98,30.38, C26.04,28.28,26.42,21.94,26.10,19.32, C25.78,16.70,25.23,11.60,18.64,9.92, C17.82,9.72,17.06,9.61,16.36,9.60, Z" fill="#745343"/>
  <path d="M45.51,80.02, C33.98,77.27,28.71,76.17,22.65,75.24, C10.67,73.41,10.10,72.83,16.24,68.70, C18.34,67.30,20.08,66.09,20.40,65.69, C20.40,65.69,17.69,64.88,15.84,64.28, C9.61,62.25,7.38,59.91,6.42,54.38, C5.71,50.30,6.30,43.17,6.75,42.43, C7.90,40.51,8.90,44.23,9.07,50.43, C9.17,54.24,11.09,57.10,12.30,58.42, C13.40,59.62,19.03,61.58,23.72,62.78, C24.88,62.01,26.54,61.04,27.45,60.37, C26.74,59.39,26.32,58.53,26.96,58.13, C27.57,57.74,28.00,57.96,29.17,59.21, C30.31,58.44,30.02,58.54,32.21,57.27, C33.98,56.24,35.09,55.91,36.09,56.11, C38.53,56.59,37.61,55.91,34.20,54.72, C32.28,54.04,29.71,52.59,28.01,51.23, L25.09,48.89, L24.74,54.43, C24.33,60.93,23.96,61.99,22.75,60.15, C22.18,59.27,22.18,56.83,22.12,52.32, C22.02,43.94,20.71,41.46,19.13,40.03, C18.32,39.30,16.54,38.39,13.59,38.26, C9.23,38.06,6.13,39.30,4.61,41.61, C3.59,43.16,2.72,54.21,3.14,60.00, C3.63,66.67,1.78,67.08,0.34,60.63, C-0.08,58.74,-0.10,54.42,0.20,50.04, C0.67,42.99,1.36,40.07,3.43,38.15, C5.72,36.00,8.58,35.30,13.17,35.30, C18.70,35.30,21.51,36.99,23.95,41.79, C24.96,43.77,26.17,45.14,28.29,46.70, L31.22,48.87, L31.58,45.70, C32.09,41.23,33.24,38.57,35.54,36.61, C37.87,34.63,41.01,33.64,44.95,33.64, C48.53,33.64,49.94,34.40,54.29,38.62, C62.12,46.22,62.70,51.90,56.42,59.42, C54.62,61.57,54.46,61.96,54.97,63.06, C55.84,64.98,55.66,67.47,54.56,68.46, C53.72,69.22,53.48,69.40,50.86,69.13, C49.42,68.97,48.36,68.24,48.24,68.24, C48.11,68.24,47.95,68.96,47.83,69.80, C47.56,71.68,46.90,72.99,45.77,72.55, C45.03,72.27,44.92,71.78,45.12,69.70, C45.32,67.69,45.61,66.23,47.00,64.76, C47.96,63.75,49.91,62.18,51.21,60.56, C53.28,57.97,53.48,57.53,52.85,56.82, C52.35,56.25,52.06,54.11,51.88,49.52, C51.57,41.78,50.68,38.68,48.33,37.25, C46.16,35.94,42.83,36.04,39.65,37.51, C36.29,39.07,35.17,41.23,34.25,47.88, C33.93,50.21,33.94,50.23,35.83,51.18, C36.88,51.70,38.89,52.51,40.29,52.96, C41.69,53.42,43.48,54.46,44.26,55.27, C45.10,56.15,46.41,56.87,47.47,57.04, C50.12,57.46,51.52,58.14,51.52,59.00, C51.52,59.41,51.52,59.94,50.90,60.09, C47.57,60.91,45.09,59.47,44.25,59.28, C42.57,58.88,43.01,58.50,43.08,59.88, C43.19,61.83,41.92,61.88,40.98,61.22, C40.40,60.82,39.61,58.84,39.37,58.32, C38.14,57.95,37.68,57.73,35.30,57.78, C33.94,57.81,30.75,60.49,31.20,61.22, C31.39,61.52,32.41,62.21,33.48,62.75, C35.80,63.93,36.17,64.46,36.31,66.74, C36.37,67.70,36.57,69.11,36.76,69.86, C37.21,71.66,35.97,71.72,34.09,69.99, C33.35,69.30,32.28,68.74,31.72,68.74, C31.16,68.74,29.92,68.32,28.96,67.82, C28.00,67.31,24.18,66.21,22.96,66.02, C22.19,66.61,22.56,66.35,19.31,68.58, C15.27,71.36,15.27,71.35,22.61,72.18, C27.41,72.72,49.01,76.82,51.54,77.67, C52.62,78.03,53.37,77.69,56.55,75.38, C61.52,71.77,68.05,67.39,72.07,64.98, L75.32,63.03, L73.32,62.69, C72.22,62.50,68.85,62.09,65.84,61.77, C58.96,61.04,57.54,60.76,57.54,60.11, C57.54,59.40,74.97,60.08,77.44,60.89, C80.24,61.80,80.02,62.73,76.46,65.00, C74.74,66.09,68.97,70.10,63.63,73.91, C56.13,79.25,53.51,80.86,52.10,80.99, C51.09,81.08,48.13,80.64,45.51,80.02, Z M56.82,52.48, C57.86,49.78,57.56,47.51,55.76,44.46, C55.04,43.22,54.37,42.28,54.27,42.37, C54.18,42.46,54.33,44.45,54.59,46.78, C54.86,49.11,54.92,52.14,54.74,53.51, C54.44,55.73,54.49,55.92,55.19,55.34, C55.62,54.98,56.36,53.70,56.82,52.48, Z M62.25,57.00, C61.89,55.59,62.38,48.34,63.18,44.27, C64.21,39.03,68.71,36.33,75.59,36.82, C79.51,37.10,82.83,40.73,87.24,44.60, C89.10,46.24,89.96,46.50,90.18,45.43, C90.34,44.66,90.52,42.06,90.55,39.65, C90.60,35.85,90.46,35.06,89.51,33.77, C88.07,31.83,87.87,27.19,89.22,26.92, C89.81,26.80,90.18,27.18,90.41,28.15, C90.60,28.93,90.96,29.97,91.22,30.47, C91.68,31.36,91.72,31.36,92.71,30.47, C93.27,29.97,94.27,28.49,94.93,27.19, C95.60,25.89,96.36,24.82,96.62,24.82, C97.53,24.82,97.70,27.16,96.94,28.99, C96.01,31.21,96.29,31.27,98.17,29.27, C98.96,28.43,99.86,27.89,100.16,28.08, C100.93,28.55,100.29,30.80,98.97,32.26, L97.88,33.46, L99.50,32.53, C100.82,31.77,101.25,31.72,101.76,32.23, C102.27,32.74,102.03,33.20,100.52,34.58, C98.98,35.99,98.25,36.30,96.46,36.30, L94.27,36.30, L93.93,41.50, C93.55,47.30,92.95,49.56,91.59,50.28, C90.12,51.07,89.70,50.90,86.99,48.40, C85.40,46.93,84.57,46.41,84.80,47.03, C85.01,47.58,85.31,50.10,85.46,52.63, C85.71,56.67,85.64,57.27,84.89,57.56, C83.41,58.13,82.88,56.88,82.52,52.01, C82.13,46.76,80.88,41.47,78.65,40.35, C75.47,38.75,68.64,40.20,66.90,42.84, C65.98,44.23,64.55,53.40,64.92,54.81, C65.06,55.33,65.02,56.31,64.85,57.00, C64.42,58.70,62.68,58.70,62.25,57.00, Z M66.54,33.60, C64.57,32.85,64.58,32.57,64.33,32.36, C61.56,33.92,61.50,32.19,62.73,30.36, C62.62,29.94,62.42,29.46,62.07,28.61, C61.65,27.61,61.17,25.62,61.01,24.19, C60.52,19.90,60.34,19.43,59.14,19.26, C57.40,19.02,57.31,16.29,58.99,14.97, C60.00,14.18,60.21,13.68,59.98,12.54, C59.76,11.42,59.98,10.85,61.03,9.87, C62.17,8.80,62.79,8.63,65.45,8.69, C69.64,8.77,73.18,9.93,74.81,11.00, C79.28,13.94,81.98,22.33,80.56,27.47, C78.85,33.63,72.74,35.97,66.54,33.60, Z M77.19,28.34, C78.44,26.51,78.60,24.42,77.75,21.06, C77.22,18.95,74.95,15.86,73.94,15.86, C73.69,15.86,72.73,16.53,71.80,17.36, C69.65,19.26,66.80,19.44,65.66,17.74, C65.00,16.74,64.83,16.70,64.04,17.35, C63.29,17.97,62.75,18.61,63.00,21.58, C63.34,25.59,64.44,28.14,64.67,28.53, C66.02,27.64,67.14,28.62,66.29,30.28, C67.37,31.02,68.61,31.21,71.08,29.35, C72.17,28.53,73.45,27.86,73.94,27.85, C75.27,27.83,75.56,29.22,74.49,30.46, L73.55,31.55, L74.81,30.77, C75.50,30.33,76.57,29.24,77.19,28.34, Z M64.84,25.66, C64.09,24.76,64.74,22.77,65.72,22.95, C66.79,23.15,67.09,25.62,66.10,26.00, C65.69,26.15,65.13,26.00,64.84,25.66, Z M69.86,25.70, C69.03,24.88,69.17,23.36,70.10,23.01, C70.96,22.68,71.78,23.60,71.79,24.92, C71.80,25.95,70.60,26.44,69.86,25.70, Z M9.14,32.68, C6.72,31.94,4.20,29.11,3.85,27.43, C3.19,24.30,2.90,20.23,5.57,16.02, C6.95,13.84,6.72,13.52,6.13,13.19, C5.74,12.97,5.41,12.49,5.41,12.13, C5.41,11.76,5.18,11.00,4.66,11.32, C3.70,11.92,2.98,10.42,3.55,9.88, C4.19,9.26,3.63,8.82,3.42,8.85, C2.04,9.00,2.03,6.47,3.02,6.46, C3.93,6.45,4.48,5.80,3.51,4.81, C2.83,4.11,4.04,2.52,5.22,3.05, C5.78,3.30,6.38,3.73,6.24,2.33, C6.12,1.18,7.91,0.09,8.86,1.08, C9.63,1.88,10.18,1.88,10.52,1.31, C11.34,-0.03,14.22,1.27,13.44,2.38, C12.98,3.02,12.80,3.65,14.41,3.20, C15.26,2.96,16.44,5.06,15.98,5.64, C15.30,6.49,15.43,6.93,16.13,7.25, C17.22,7.75,20.80,8.07,20.45,7.37, C20.02,6.52,20.94,5.66,21.61,5.98, C22.01,6.17,22.31,5.80,22.16,5.32, C21.78,4.09,23.15,3.20,23.77,3.84, C24.33,4.41,25.13,3.99,25.22,3.45, C25.43,2.26,27.97,2.57,27.65,3.85, C27.44,4.70,28.06,4.84,28.70,4.45, C29.45,3.98,31.41,5.06,30.38,6.26, C29.91,6.81,30.16,7.20,31.03,7.38, C32.28,7.64,31.97,10.16,31.08,10.11, C30.10,10.05,30.21,10.89,30.52,11.45, C31.03,12.35,29.84,13.63,28.99,13.10, C28.67,12.91,27.84,13.61,28.47,14.28, C29.38,15.25,28.62,15.95,28.03,16.04, C27.76,16.08,27.49,17.89,27.35,19.83, C27.27,23.18,25.69,25.85,23.97,28.62, C24.96,30.73,23.45,31.64,21.80,30.36, C21.80,30.36,21.05,31.05,20.24,31.48, C16.08,33.73,12.49,33.69,9.14,32.68, Z M12.26,29.00, C10.91,27.66,10.21,25.36,10.51,23.26, C10.77,21.38,12.03,21.88,12.80,24.18, C13.96,27.63,16.72,29.80,18.47,29.19, C19.16,28.95,20.31,28.23,20.31,28.23, C19.81,26.63,21.44,25.60,22.21,26.95, C23.05,25.99,23.75,24.31,24.41,21.74, C24.91,19.79,24.56,18.70,24.00,18.36, C23.54,18.08,23.43,17.47,23.65,16.51, C23.95,15.20,23.92,15.16,23.25,16.01, C22.11,17.45,21.17,16.17,21.88,13.89, C22.32,12.50,21.67,12.16,21.35,13.21, C20.81,15.03,18.95,14.69,18.95,12.87, C18.95,11.10,18.08,10.37,17.85,11.95, C17.62,13.59,16.05,13.71,15.65,12.13, C15.17,10.20,14.46,10.58,14.78,12.59, C15.03,14.12,14.94,14.34,14.02,14.34, C13.45,14.34,12.76,13.95,12.49,13.47, C11.80,12.23,11.16,13.11,11.77,14.46, C12.05,15.08,12.18,15.87,12.06,16.21, C11.80,16.96,10.11,17.04,9.67,16.33, C9.08,15.38,8.40,16.36,8.94,17.37, C9.38,18.18,9.26,18.42,8.20,18.82, C7.43,19.11,7.04,19.57,7.20,19.98, C7.35,20.36,7.12,20.95,6.69,21.31, C5.80,22.04,5.96,24.51,6.51,26.41, C7.38,29.45,10.79,30.85,12.37,30.98, C13.72,31.08,14.75,30.96,14.41,30.76, C13.73,30.37,12.81,29.55,12.26,29.00, Z M20.14,23.10, C19.74,22.07,20.81,20.80,21.76,21.17, C22.76,21.55,22.43,23.52,21.32,23.73, C20.84,23.82,20.31,23.54,20.14,23.10, Z M15.94,21.71, C15.79,21.12,16.00,20.45,16.33,20.12, C17.33,19.12,18.53,19.72,18.35,20.95, C18.17,22.20,16.24,22.87,15.94,21.71, Z M36.79,28.92, C35.06,29.81,33.93,30.02,33.65,29.61, C33.09,28.77,34.35,27.46,35.08,26.89, C33.61,24.02,33.70,16.19,35.78,11.88, C36.65,10.08,37.79,8.70,39.26,7.67, C41.05,6.41,41.45,5.84,41.45,4.57, C41.45,3.52,41.90,2.60,42.83,1.72, C45.51,-0.78,49.48,-0.53,52.20,2.30, C53.43,3.58,54.17,4.59,53.89,6.50, C53.60,8.45,52.71,9.08,52.39,9.49, C54.85,12.81,55.15,15.96,54.34,19.83, C52.70,28.15,49.89,31.41,44.16,31.37, C41.60,31.32,38.56,31.02,36.79,28.92, Z M43.64,28.80, C43.13,27.50,46.94,26.05,48.60,27.15, C50.88,25.71,51.49,21.17,51.42,21.11, C51.31,21.03,50.16,20.58,48.86,20.10, C46.70,19.30,44.36,17.26,43.85,15.72, C43.70,15.28,43.22,15.39,42.17,16.12, C41.36,16.68,39.79,17.47,38.70,17.91, L36.52,18.78, C35.87,20.65,36.25,24.09,36.99,25.70, C37.86,25.28,38.63,25.25,38.96,25.64, C39.29,26.03,39.24,26.67,38.63,27.23, C38.88,27.93,43.64,29.50,43.64,28.80, Z M39.69,22.27, C39.28,20.98,40.07,20.04,41.20,20.48, C42.26,20.88,42.00,22.97,40.87,23.19, C40.37,23.28,39.90,22.91,39.69,22.27, Z M43.96,22.07, C43.96,20.48,45.24,20.04,45.90,20.94, C46.72,22.06,46.14,23.29,44.91,23.29, C44.24,23.29,43.96,22.93,43.96,22.07, Z M51.97,17.15, C51.97,14.67,49.79,10.50,48.03,9.60, C45.18,8.13,44.48,8.81,44.47,13.09, C44.46,15.50,46.22,17.49,49.29,18.54, C51.65,19.35,51.98,19.18,51.97,17.15, Z M39.29,15.72, C42.17,14.08,42.96,13.27,42.96,11.95, C42.96,11.29,43.20,10.29,43.50,9.74, C45.05,6.85,40.43,9.06,38.69,12.03, C37.50,14.07,36.60,16.80,37.11,16.80, C37.26,16.80,38.25,16.31,39.29,15.72, Z M51.23,6.82, C51.40,6.54,51.30,6.32,51.00,6.32, C50.71,6.32,50.47,6.54,50.47,6.82, C50.47,7.09,50.57,7.32,50.70,7.32, C50.82,7.32,51.06,7.09,51.23,6.82, Z M50.18,5.37, C51.00,4.47,50.98,4.39,49.92,3.65, C48.58,2.71,47.97,2.99,47.97,4.52, C47.97,6.50,48.84,6.84,50.18,5.37, Z M44.46,4.26, C44.46,3.72,44.23,3.41,43.96,3.57, C43.68,3.74,43.46,4.33,43.46,4.88, C43.46,5.43,43.68,5.74,43.96,5.57, C44.23,5.40,44.46,4.81,44.46,4.26, Z M47.17,3.66, C47.45,2.48,47.36,2.27,46.62,2.42, C45.64,2.60,45.20,3.92,45.69,5.18, C46.08,6.20,46.73,5.53,47.17,3.66, Z" fill="none"/>
</svg>
